<svg width="20" height="20" viewBox="0 0 20 20" fill="none" xmlns="http://www.w3.org/2000/svg">
<g clip-path="url(#clip0)">
<path d="M10 18.75C7.66251 18.75 5.46564 17.84 3.81314 16.1869C1.11189 13.4863 0.470636 9.39063 2.21689 5.99688C2.37501 5.69 2.75126 5.56938 3.05876 5.72688C3.36564 5.88438 3.48689 6.26125 3.32876 6.56875C1.83189 9.47813 2.38126 12.9881 4.69689 15.3031C6.11314 16.72 7.99626 17.5 10 17.5C12.0031 17.5 13.8869 16.72 15.3031 15.3031C16.7194 13.8863 17.5 12.0031 17.5 10C17.5 7.99625 16.72 6.11312 15.3031 4.69687C13.8863 3.28062 12.0038 2.5 10 2.5C7.99626 2.5 6.11314 3.28062 4.69689 4.69687C4.45251 4.94125 4.05751 4.94125 3.81314 4.69687C3.56876 4.4525 3.56876 4.0575 3.81314 3.81312C5.46564 2.16062 7.66251 1.25 10 1.25C12.3375 1.25 14.535 2.16062 16.1869 3.81312C17.84 5.46562 18.75 7.6625 18.75 10C18.75 12.3369 17.84 14.5344 16.1869 16.1869C14.535 17.84 12.3375 18.75 10 18.75Z" fill="#6729A8"/>
<path d="M10 14C9.448 14 9 13.702 9 13.3333V6.66667C9 6.29867 9.448 6 10 6C10.552 6 11 6.29867 11 6.66667V13.3333C11 13.702 10.552 14 10 14Z" fill="#6729A8"/>
<path d="M13.125 11H6.875C6.53 11 6.25 10.552 6.25 10C6.25 9.448 6.53 9 6.875 9H13.125C13.4706 9 13.75 9.448 13.75 10C13.75 10.552 13.4706 11 13.125 11Z" fill="#6729A8"/>
</g>
<defs>
<clipPath id="clip0">
<rect width="20" height="20" fill="white"/>
</clipPath>
</defs>
</svg>
